<svg fill="none" xmlns="http://www.w3.org/2000/svg" viewBox="0 0 195 91">
  <path d="M85.568 0h21.128l45.584 82.295L138.349 91 85.569 0z" fill="url(#-RwsjzDb6gmOa)"/>
  <path d="M159.268 90.743l-20.973.077L106.975.462l52.293 90.281z" fill="#E32B2B"/>
  <path d="M35.656 89.819a43.86 43.86 0 01-15.954-6.83A45.384 45.384 0 01.93 54.539a46.733 46.733 0 010-18.283 45.384 45.384 0 0118.771-28.45 44.482 44.482 0 017.58-4.186A43.49 43.49 0 0135.657.976a44.29 44.29 0 0118.003 0 43.46 43.46 0 018.374 2.644 42.776 42.776 0 017.58 4.186A45.488 45.488 0 0185.8 27.757c.333.796.64 1.592.922 2.388l-15.084 8.73-46.25 26.782c5.147 5.058 12.062 7.908 19.258 7.908 5.762-.385 7.452-.822 11.498-2.49l3.125-1.516L166.21 7.833l8.118 15.252L68.973 83.682a59.617 59.617 0 01-7.785 3.903c-2.817 1.027-5.429 1.9-8.297 2.49a46.52 46.52 0 01-8.22.668c-3.048 0-6.044-.308-9.015-.924zM16.91 45.397c0 1.798.18 3.595.512 5.367l45.661-26.422a27.51 27.51 0 00-18.438-7.087c-15.289 0-27.735 12.633-27.735 28.142z" fill="url(#-RwsjzDb6gmOb)"/>
  <path d="M21.7 84.298a53.052 53.052 0 01-1.998-1.284A45.384 45.384 0 01.93 54.564a46.733 46.733 0 010-18.282 45.384 45.384 0 0118.772-28.45A43.819 43.819 0 0135.989.95a44.031 44.031 0 0117.67.051 43.533 43.533 0 018.374 2.645 42.775 42.775 0 017.58 4.186A45.489 45.489 0 0185.8 27.782c.333.771.64 1.567.922 2.389l-5.558 3.21a39.864 39.864 0 00-13.675-11.89 39.236 39.236 0 00-18.157-4.467c-1.434 0-2.842.077-4.25.231h-.41a27.74 27.74 0 00-10.5 2.08 27.865 27.865 0 00-8.912 5.957 39.427 39.427 0 00-10.628 12.71A39.487 39.487 0 0010.175 54a39.268 39.268 0 002.51 16.382 39.04 39.04 0 009.014 13.917zm62.152-9.218a39.395 39.395 0 004.712-18.693 42.76 42.76 0 00-.153-3.62l74.497-42.958 2.996 17.974L83.852 75.08z" fill="url(#-RwsjzDb6gmOc)"/>
  <path d="M.443 51.765a46.388 46.388 0 01.46-15.509 45.384 45.384 0 0118.772-28.45 44.482 44.482 0 017.58-4.186A43.49 43.49 0 0135.63.976a44.29 44.29 0 0118.003 0 43.86 43.86 0 0115.955 6.83 45.488 45.488 0 0116.184 19.951c.333.77.64 1.592.922 2.388l-.717.41C74.146 21.75 60.19 16.87 46.693 16.87c-6.223-.026-12.395 1.053-18.208 3.235a44.995 44.995 0 00-23.33 19.926A48.501 48.501 0 00.443 51.765z" fill="url(#-RwsjzDb6gmOd)"/>
  <path d="M194.459.128l-24.304 42.06L145.98.206l48.479-.078z" fill="url(#-RwsjzDb6gmOe)"/>
  <path d="M170.155 42.188l-6.76-11.735L193.562.205h.82l-24.227 41.983z" fill="url(#-RwsjzDb6gmOf)"/>
  <defs>
    <radialGradient id="-RwsjzDb6gmOa" cx="0" cy="0" r="1" gradientUnits="userSpaceOnUse" gradientTransform="rotate(-117.448 529.842 -842.772) scale(10.9181 1912.96)">
      <stop stop-color="#E32B2B"/>
      <stop offset="1" stop-color="#721616"/>
    </radialGradient>
    <radialGradient id="-RwsjzDb6gmOb" cx="0" cy="0" r="1" gradientUnits="userSpaceOnUse" gradientTransform="matrix(53.16456 .15992 -.172 57.18004 49.415 98.698)">
      <stop stop-color="#EF352E"/>
      <stop offset="1" stop-color="#AC1A1A"/>
    </radialGradient>
    <radialGradient id="-RwsjzDb6gmOc" cx="0" cy="0" r="1" gradientUnits="userSpaceOnUse" gradientTransform="matrix(82.9461 0 0 42.1037 43.8 47.743)">
      <stop stop-color="#EF352E"/>
      <stop offset="1" stop-color="#EF352E"/>
    </radialGradient>
    <linearGradient id="-RwsjzDb6gmOd" x1="43.357" y1=".081" x2="43.357" y2="48.258" gradientUnits="userSpaceOnUse">
      <stop stop-color="#EF352E"/>
      <stop offset="1" stop-color="#571010"/>
    </linearGradient>
    <linearGradient id="-RwsjzDb6gmOe" x1="178.28" y1="16.131" x2="170.029" y2="-.126" gradientUnits="userSpaceOnUse">
      <stop stop-color="#AC1A1A"/>
      <stop offset="1" stop-color="#EF352E"/>
    </linearGradient>
    <linearGradient id="-RwsjzDb6gmOf" x1="182.871" y1="1.341" x2="171.282" y2="41.878" gradientUnits="userSpaceOnUse">
      <stop stop-color="#E32B2B"/>
      <stop offset="1" stop-color="#AC1A1A"/>
    </linearGradient>
  </defs>
</svg>